<?xml version="1.0" encoding="UTF-8" standalone="no"?>
<!-- Created with Inkscape (http://www.inkscape.org/) -->

<svg
   width="210mm"
   height="297mm"
   viewBox="0 0 210 297"
   version="1.1"
   id="svg227"
   sodipodi:docname="carbide_flag_full_topleft.svg"
   xmlns:inkscape="http://www.inkscape.org/namespaces/inkscape"
   xmlns:sodipodi="http://sodipodi.sourceforge.net/DTD/sodipodi-0.dtd"
   xmlns="http://www.w3.org/2000/svg"
   xmlns:svg="http://www.w3.org/2000/svg">
  <sodipodi:namedview
     id="namedview229"
     pagecolor="#ffffff"
     bordercolor="#000000"
     borderopacity="0.25"
     inkscape:showpageshadow="2"
     inkscape:pageopacity="0.0"
     inkscape:pagecheckerboard="0"
     inkscape:deskcolor="#d1d1d1"
     inkscape:document-units="mm"
     showgrid="false"
     inkscape:zoom="1.1252224"
     inkscape:cx="496.79067"
     inkscape:cy="217.29037"
     inkscape:window-width="1710"
     inkscape:window-height="1041"
     inkscape:window-x="0"
     inkscape:window-y="43"
     inkscape:window-maximized="0"
     inkscape:current-layer="layer1" />
  <defs
     id="defs224">
    <rect
       x="131.39999"
       y="445.2453"
       width="472.92496"
       height="339.48843"
       id="rect473" />
    <clipPath
       clipPathUnits="userSpaceOnUse"
       id="clipPath280">
      <rect
         style="fill:#000000"
         id="rect282"
         width="262.79999"
         height="126.1"
         x="0"
         y="1.3" />
    </clipPath>
    <filter
       inkscape:label="Fast Crop"
       inkscape:auto-region="false"
       inkscape:menu="Fill and Transparency"
       inkscape:menu-tooltip="Does not filter but adds a filter region"
       style="color-interpolation-filters:sRGB"
       id="filter224">
      <feColorMatrix
         type="saturate"
         values="1"
         id="feColorMatrix222" />
    </filter>
  </defs>
  <g
     inkscape:label="Layer 1"
     inkscape:groupmode="layer"
     id="layer1">
    <g
       id="Layer_2_1_"
       style="filter:url(#filter224)"
       clip-path="url(#clipPath280)"
       transform="matrix(0.26458333,0,0,0.26458333,0,49.673213)">
	<g
   id="Layer_1-2">
		<path
   class="st0"
   d="m 293.6,1.2 h 28.6 c 13.6,0 22.7,6.6 22.7,19.3 0,10.4 -7.1,16.6 -14,18.8 2,1.8 3.7,4.1 4.8,6.6 2.9,5.8 4.8,12.3 10.9,12.3 0.9,0 1.9,-0.2 2.8,-0.5 l -1.3,12.2 c -2.3,0.5 -4.6,0.8 -6.9,0.9 -8.2,0 -12.9,-3.2 -17.7,-14.2 -2,-4.9 -4.9,-13.6 -8.7,-13.6 h -3.9 V 70.4 H 293.7 V 1.2 Z m 17.2,12.5 v 17 h 6.2 c 4.9,0 10.7,-1.5 10.7,-8.9 0,-6.1 -3.9,-8.1 -8.6,-8.1 z"
   id="path17"
   style="fill:#59595b" />

		<path
   class="st0"
   d="m 368.1,1.2 h 17.4 l 23.4,69.3 H 391.5 L 387.2,57.3 H 364 l -4.2,13.2 h -15 z m 0,43.5 H 383 l -4.7,-14.6 c -1.1,-3.9 -1.9,-7.9 -2.4,-11.9 h -0.4 c -0.6,4 -1.4,7.9 -2.6,11.8 z"
   id="path19"
   style="fill:#59595b" />

		<path
   class="st0"
   d="M 409.6,1.2 H 428 l 18.2,34.4 c 1.5,3 3.6,8.2 5.2,12.3 h 0.4 C 451.6,44 451.1,38.4 451.1,34.4 V 1.2 h 14.1 v 69.3 h -18 L 428.3,36.2 c -1.9,-3.7 -3.6,-7.4 -5,-11.3 h -0.4 c 0.3,3.9 0.8,8.5 0.8,12.3 V 70.5 H 409.5 V 1.2 Z"
   id="path21"
   style="fill:#59595b" />

		<path
   class="st0"
   d="M 468.8,35.4 C 468.8,10.3 481.2,0 500.4,0 c 20.2,0 28.4,11.1 26.1,26.1 l -16,1.4 c 1.8,-11 -2.6,-15.4 -10.4,-15.4 -7.5,0 -13.6,5.6 -13.6,23.4 0,18.9 6.6,23.7 14.1,23.7 7.1,0 12.8,-4.4 11.6,-13.5 l 15,1.5 c 1.1,14.1 -9,24.4 -27.5,24.4 C 481,71.8 468.9,60.7 468.8,35.4"
   id="path23"
   style="fill:#59595b" />

		<polygon
   class="st0"
   points="549.9,1.2 549.9,27.4 571,27.4 571,1.2 588.1,1.2 588.1,70.6 571,70.6 571,41.2 549.9,41.2 549.9,70.6 532.8,70.6 532.8,1.2 "
   id="polygon25"
   style="fill:#59595b" />

		<polygon
   class="st0"
   points="638.9,1.2 638.9,14 610.2,14 610.2,28.9 634.3,28.9 634.3,41.6 610.2,41.6 610.2,57.8 639.9,57.8 639.9,70.6 593,70.6 593,1.2 "
   id="polygon27"
   style="fill:#59595b" />

		<path
   class="st0"
   d="m 643.2,1.2 h 28.5 c 13.6,0 22.7,6.6 22.7,19.3 0,10.4 -7.1,16.6 -14,18.8 2,1.8 3.7,4.1 4.8,6.6 2.9,5.8 4.8,12.3 10.9,12.3 0.9,0 1.9,-0.2 2.8,-0.5 l -1.3,12.2 c -2.3,0.5 -4.6,0.8 -6.9,0.9 -8.2,0 -12.9,-3.2 -17.8,-14.2 C 670.9,51.7 668,43 664.2,43 h -3.9 v 27.4 h -17.1 z m 17.2,12.5 v 17 h 6.2 c 4.9,0 10.7,-1.5 10.7,-8.9 0,-6.1 -3.9,-8.1 -8.6,-8.1 z"
   id="path29"
   style="fill:#59595b" />

		<path
   class="st0"
   d="m 293.6,92 h 21.2 v 3 h -17.9 v 12.6 h 16.6 v 3 h -16.7 v 16.8 h -3.3 V 92 Z"
   id="path31"
   style="fill:#59595b" />

		<path
   class="st0"
   d="M 326.4,92 H 348 v 3 h -18.4 v 12.6 h 17.2 v 3 h -17.2 v 13.8 h 19.1 v 3 H 326.3 V 92 Z"
   id="path33"
   style="fill:#59595b" />

		<path
   class="st0"
   d="m 360.6,92 h 11 c 2.6,-0.1 5.3,0.3 7.8,1.1 1.9,0.6 3.7,1.6 5.3,2.9 1.3,1.1 2.5,2.4 3.4,3.9 0.8,1.3 1.4,2.6 1.8,4.1 0.3,1.2 0.6,2.3 0.7,3.5 0.1,1.1 0.1,1.8 0.1,2.2 0,0.4 0,1.2 -0.1,2.2 -0.1,1.2 -0.4,2.4 -0.7,3.5 -0.4,1.4 -1,2.8 -1.8,4.1 -0.9,1.5 -2,2.8 -3.4,3.9 -1.6,1.3 -3.4,2.2 -5.3,2.9 -2.5,0.8 -5.2,1.2 -7.8,1.1 h -11 z m 3.3,32.4 h 6.8 c 2.2,0 4.4,-0.3 6.5,-0.9 1.9,-0.5 3.7,-1.4 5.3,-2.7 1.5,-1.2 2.7,-2.8 3.5,-4.6 1.7,-4.2 1.7,-8.9 0,-13.2 -0.8,-1.8 -2,-3.4 -3.5,-4.6 -1.6,-1.2 -3.4,-2.1 -5.3,-2.7 -2.1,-0.6 -4.3,-0.9 -6.5,-0.9 h -6.8 z"
   id="path35"
   style="fill:#59595b" />

		<path
   class="st0"
   d="m 403.1,92 h 21.6 v 3 h -18.4 v 12.6 h 17.2 v 3 h -17.2 v 13.8 h 19.1 v 3 H 403 V 92 Z"
   id="path37"
   style="fill:#59595b" />

		<path
   class="st0"
   d="m 437.8,92 h 9.3 c 0.5,0 1.1,0 1.9,0 0.9,0 1.7,0.1 2.6,0.3 1,0.2 1.9,0.4 2.9,0.8 1,0.4 1.8,0.9 2.6,1.6 0.8,0.7 1.4,1.7 1.9,2.7 0.5,1.2 0.8,2.6 0.8,3.9 0.1,1.4 -0.2,2.9 -0.9,4.2 -0.5,1 -1.3,2 -2.2,2.7 -0.9,0.7 -1.9,1.2 -2.9,1.5 -1,0.3 -2,0.6 -3,0.7 l 10.3,17 h -3.8 l -10,-16.8 h -6.1 v 16.8 h -3.3 V 92 Z m 3.3,15.6 h 7 c 1.4,0.1 2.9,-0.2 4.2,-0.7 0.9,-0.3 1.8,-0.9 2.5,-1.6 0.6,-0.6 1,-1.2 1.2,-2 0.4,-1.3 0.4,-2.7 0,-4 -0.3,-0.8 -0.7,-1.4 -1.2,-2 -0.7,-0.7 -1.6,-1.2 -2.5,-1.6 -1.4,-0.5 -2.8,-0.7 -4.2,-0.7 h -7 z"
   id="path39"
   style="fill:#59595b" />

		<path
   class="st0"
   d="m 483.3,92 h 3.4 l 14.9,35.4 h -3.7 L 494,118 h -18.7 l -4,9.4 h -3.5 z m 1.5,3.6 -8.2,19.4 h 16.2 z"
   id="path41"
   style="fill:#59595b" />

		<path
   class="st0"
   d="m 511.7,92 h 3.3 v 32.4 h 16.5 v 3 h -19.8 z"
   id="path43"
   style="fill:#59595b" />

		<rect
   x="123.3"
   y="1.3"
   class="st1"
   width="139.5"
   height="17.9"
   id="rect45"
   style="fill:#f15354" />

		<rect
   x="123.3"
   y="37.099998"
   class="st1"
   width="139.5"
   height="17.9"
   id="rect47"
   style="fill:#f15354" />

		<rect
   y="72.900002"
   class="st1"
   width="262.79999"
   height="17.9"
   id="rect49"
   x="0"
   style="fill:#f15354" />

		<rect
   y="108.8"
   class="st1"
   width="262.79999"
   height="17.9"
   id="rect51"
   x="0"
   style="fill:#f15354" />

		<path
   class="st2"
   d="m 114.4,13.1 -1.2,-7.4 c -0.4,-2.4 -1.3,-4.4 -2.1,-4.4 -0.8,0 -1.3,2 -1.3,4.4 v 2 c 0,2.4 -2,4.3 -4.4,4.3 H 103 v 5.4 h 7.8 c 2,0.1 3.7,-1.5 3.8,-3.5 -0.1,-0.3 -0.1,-0.6 -0.2,-0.8"
   id="path53"
   style="fill:#0575a7" />

		<path
   class="st2"
   d="M 96.9,6.8 H 72.5 c -0.1,0 -0.3,0 -0.4,0 V 5.6 c 0,-2.4 -0.6,-4.4 -1.3,-4.4 -0.7,0 -1.7,2 -2.1,4.3 L 67.4,13 c -0.4,2 0.8,3.9 2.8,4.3 0.3,0.1 0.6,0.1 0.9,0.1 h 7.3 c 0.7,0 1.4,-0.1 2.1,-0.4 -0.2,1.3 -1.3,2.2 -2.6,2.2 H 67.6 c -1.5,0 -2.7,-1.2 -2.7,-2.7 0,0 0,0 0,0 0,-0.1 0,-0.3 0,-0.4 l 1,-6.2 c 0.2,-1.5 -0.7,-2.8 -2.2,-3.1 0,0 0,0 0,0 -0.1,0 -0.3,0 -0.4,0 H 12.2 c -1.1,0 -2,0.6 -2.4,1.6 L 0.1,23 c -0.2,0.2 -0.1,0.6 0,0.8 L 2,26 c 0.2,0.3 0.6,0.3 0.9,0.1 L 9.4,21 v 31.3 c 0,1.5 1.2,2.7 2.6,2.7 0,0 0,0 0.1,0 h 14.5 c 1.5,0 2.7,-1.2 2.7,-2.7 V 41.4 c 0,-1.5 1.2,-2.7 2.7,-2.7 0,0 0,0 0,0 h 36.2 c 1.5,0 2.7,1.2 2.7,2.7 0,0 0,0 0,0 v 10.9 c 0,1.5 1.2,2.7 2.6,2.7 0,0 0,0 0.1,0 h 14.5 c 1.5,0 2.7,-1.2 2.7,-2.7 v 0 -11.8 h -7.7 c -2.4,0 -4.4,-2 -4.4,-4.4 0,0 0,0 0,0 v -7.5 c 0,-1.4 0.7,-2.7 1.8,-3.5 v 9 c 0,2.4 2,4.4 4.4,4.4 h 11.8 c 2.4,0 4.4,-2 4.4,-4.4 v -23 C 101.2,8.7 99.3,6.8 96.9,6.8"
   id="path55"
   style="fill:#0575a7" />

	</g>

</g>
    <text
       xml:space="preserve"
       transform="matrix(0.26458333,0,0,0.26458333,35.108063,-50.084542)"
       id="text471"
       style="font-size:96px;line-height:0;white-space:pre;shape-inside:url(#rect473);fill:#000000"><tspan
         x="131.40039"
         y="472.8298"
         id="tspan1399"><tspan
           style="font-family:Nasalization;-inkscape-font-specification:Nasalization"
           id="tspan1397">CARBIDE</tspan></tspan></text>
    <text
       xml:space="preserve"
       style="font-style:normal;font-variant:normal;font-weight:normal;font-stretch:normal;font-size:25.4px;font-family:Nasalization;-inkscape-font-specification:Nasalization;fill:#f15354;fill-opacity:1;stroke-width:0.264583"
       x="87.192207"
       y="75.018341"
       id="text939"><tspan
         sodipodi:role="line"
         id="tspan937"
         style="fill:#f15354;fill-opacity:1;stroke-width:0.264583"
         x="87.192207"
         y="75.018341">A</tspan></text>
  </g>
</svg>
